<svg width="16" height="16" viewBox="0 0 16 16" fill="none" xmlns="http://www.w3.org/2000/svg">
<path d="M9.25065 6.47225V5.8309C9.61732 5.65087 10.0035 5.51585 10.4093 5.42584C10.8147 5.33582 11.234 5.29081 11.6673 5.29081C11.9118 5.29081 12.1478 5.30769 12.3753 5.34145C12.6033 5.3752 12.8395 5.42021 13.084 5.47647V6.08406C12.8507 6.0053 12.6229 5.95174 12.4007 5.92339C12.1784 5.89548 11.934 5.88153 11.6673 5.88153C11.234 5.88153 10.8118 5.93216 10.4007 6.03343C9.98954 6.1347 9.60621 6.28097 9.25065 6.47225ZM9.25065 10.1516V9.49335C9.5951 9.31332 9.97843 9.1783 10.4007 9.08828C10.8229 8.99827 11.2451 8.95326 11.6673 8.95326C11.9118 8.95326 12.1478 8.96721 12.3753 8.99512C12.6033 9.02347 12.8395 9.0714 13.084 9.13892V9.74651C12.8507 9.66775 12.6229 9.61419 12.4007 9.58583C12.1784 9.55793 11.934 9.54398 11.6673 9.54398C11.234 9.54398 10.8118 9.59731 10.4007 9.70398C9.98954 9.8111 9.60621 9.96029 9.25065 10.1516ZM9.25065 8.32879V7.67056C9.61732 7.49053 10.0035 7.35259 10.4093 7.25672C10.8147 7.16131 11.234 7.1136 11.6673 7.1136C11.9118 7.1136 12.1478 7.13048 12.3753 7.16423C12.6033 7.19799 12.8395 7.24299 13.084 7.29925V7.92373C12.8507 7.84496 12.6229 7.7914 12.4007 7.76305C12.1784 7.73515 11.934 7.72119 11.6673 7.72119C11.234 7.72119 10.8118 7.77475 10.4007 7.88187C9.98954 7.98854 9.60621 8.13751 9.25065 8.32879ZM4.33398 10.8267C4.91176 10.8267 5.47576 10.8942 6.02598 11.0292C6.57576 11.1642 7.12287 11.3836 7.66732 11.6874V5.05453C7.18954 4.70572 6.6591 4.44401 6.07598 4.26938C5.49243 4.0952 4.91176 4.00811 4.33398 4.00811C3.93398 4.00811 3.58398 4.03332 3.28398 4.08373C2.98398 4.13458 2.65065 4.22752 2.28398 4.36254C2.18398 4.3963 2.11176 4.44423 2.06732 4.50634C2.02287 4.568 2.00065 4.63821 2.00065 4.71697V10.8098C2.00065 10.9336 2.04243 11.0236 2.12598 11.0798C2.2091 11.1361 2.30621 11.1417 2.41732 11.0967C2.66176 11.0067 2.94243 10.9392 3.25932 10.8942C3.57576 10.8492 3.93398 10.8267 4.33398 10.8267ZM8.33398 11.6874C8.87843 11.3836 9.42576 11.1642 9.97598 11.0292C10.5258 10.8942 11.0895 10.8267 11.6673 10.8267C12.0673 10.8267 12.4258 10.8492 12.7427 10.8942C13.0591 10.9392 13.3395 11.0067 13.584 11.0967C13.6951 11.1417 13.7922 11.1361 13.8753 11.0798C13.9589 11.0236 14.0007 10.9336 14.0007 10.8098V4.71697C14.0007 4.63821 13.9784 4.5707 13.934 4.51444C13.8895 4.45818 13.8173 4.40755 13.7173 4.36254C13.3507 4.22752 13.0173 4.13458 12.7173 4.08373C12.4173 4.03332 12.0673 4.00811 11.6673 4.00811C11.0895 4.00811 10.5089 4.0952 9.92532 4.26938C9.34221 4.44401 8.81176 4.70572 8.33398 5.05453V11.6874ZM8.00065 12.6663C7.45621 12.2838 6.87287 11.9942 6.25065 11.7975C5.62843 11.6004 4.98954 11.5018 4.33398 11.5018C3.98954 11.5018 3.65065 11.5299 3.31732 11.5862C2.98398 11.6424 2.65621 11.7381 2.33398 11.8731C2.08954 11.9631 1.86176 11.9294 1.65065 11.7718C1.43954 11.6143 1.33398 11.4005 1.33398 11.1305V4.59883C1.33398 4.43005 1.37843 4.27523 1.46732 4.13436C1.55621 3.99394 1.67843 3.8956 1.83398 3.83934C2.22287 3.65931 2.62843 3.52991 3.05065 3.45115C3.47287 3.37239 3.90065 3.33301 4.33398 3.33301C4.98954 3.33301 5.62843 3.42865 6.25065 3.61993C6.87287 3.81121 7.45621 4.0925 8.00065 4.46381C8.5451 4.0925 9.12843 3.81121 9.75065 3.61993C10.3729 3.42865 11.0118 3.33301 11.6673 3.33301C12.1007 3.33301 12.5284 3.37239 12.9507 3.45115C13.3729 3.52991 13.7784 3.65931 14.1673 3.83934C14.3229 3.8956 14.4451 3.99394 14.534 4.13436C14.6229 4.27523 14.6673 4.43005 14.6673 4.59883V11.1305C14.6673 11.4005 14.5535 11.6116 14.326 11.7637C14.098 11.9154 13.8507 11.9406 13.584 11.8393C13.284 11.7156 12.9729 11.6285 12.6507 11.5781C12.3284 11.5272 12.0007 11.5018 11.6673 11.5018C11.0118 11.5018 10.3729 11.6004 9.75065 11.7975C9.12843 11.9942 8.5451 12.2838 8.00065 12.6663Z" fill="white"/>
</svg>
