<svg width="12" height="12" viewBox="0 0 12 12" fill="none" xmlns="http://www.w3.org/2000/svg">
<path d="M6 10.5C5.025 10.5 4.198 10.1603 3.519 9.481C2.83967 8.802 2.5 7.975 2.5 7C2.5 6.35833 2.60633 5.7125 2.819 5.0625C3.03133 4.4125 3.30633 3.82283 3.644 3.2935C3.98133 2.7645 4.35833 2.33333 4.775 2C5.19167 1.66667 5.6 1.5 6 1.5C6.40833 1.5 6.81883 1.66667 7.2315 2C7.64383 2.33333 8.01883 2.7645 8.3565 3.2935C8.69383 3.82283 8.96883 4.4125 9.1815 5.0625C9.39383 5.7125 9.5 6.35833 9.5 7C9.5 7.975 9.16033 8.802 8.481 9.481C7.802 10.1603 6.975 10.5 6 10.5ZM6 9.5C6.69167 9.5 7.28133 9.25633 7.769 8.769C8.25633 8.28133 8.5 7.69167 8.5 7C8.5 6.525 8.41883 6.025 8.2565 5.5C8.09383 4.975 7.88967 4.4895 7.644 4.0435C7.398 3.59783 7.12917 3.22917 6.8375 2.9375C6.54583 2.64583 6.26667 2.5 6 2.5C5.74167 2.5 5.46467 2.64583 5.169 2.9375C4.873 3.22917 4.60217 3.59783 4.3565 4.0435C4.1105 4.4895 3.90633 4.975 3.744 5.5C3.58133 6.025 3.5 6.525 3.5 7C3.5 7.69167 3.74383 8.28133 4.2315 8.769C4.71883 9.25633 5.30833 9.5 6 9.5ZM6.5 9C6.64167 9 6.7605 8.952 6.8565 8.856C6.95217 8.76033 7 8.64167 7 8.5C7 8.35833 6.95217 8.23967 6.8565 8.144C6.7605 8.048 6.64167 8 6.5 8C6.08333 8 5.72917 7.85417 5.4375 7.5625C5.14583 7.27083 5 6.91667 5 6.5C5 6.35833 4.95217 6.2395 4.8565 6.1435C4.7605 6.04783 4.64167 6 4.5 6C4.35833 6 4.23967 6.04783 4.144 6.1435C4.048 6.2395 4 6.35833 4 6.5C4 7.19167 4.24383 7.78133 4.7315 8.269C5.21883 8.75633 5.80833 9 6.5 9Z" fill="#F8C100"/>
</svg>
